<svg viewBox="0 0 24 24" fill="none" xmlns="http://www.w3.org/2000/svg">
<path d="M10.5 3.5C10.5 2.67157 11.1716 2 12 2C12.8284 2 13.5 2.67157 13.5 3.5V20.5C13.5 21.3284 12.8284 22 12 22C11.1716 22 10.5 21.3284 10.5 20.5V3.5Z" fill="white"/>
<path d="M20.5 10.5C21.3284 10.5 22 11.1716 22 12C22 12.8284 21.3284 13.5 20.5 13.5L3.5 13.5C2.67157 13.5 2 12.8284 2 12C2 11.1716 2.67157 10.5 3.5 10.5L20.5 10.5Z" fill="white"/>
<path d="M19.0712 16.9497C19.657 17.5355 19.657 18.4852 19.0712 19.071C18.4854 19.6568 17.5356 19.6568 16.9499 19.071L4.92904 7.05022C4.34325 6.46443 4.34325 5.51469 4.92904 4.9289C5.51483 4.34311 6.46457 4.34311 7.05036 4.9289L19.0712 16.9497Z" fill="white"/>
<path d="M7.05041 19.0711C6.46462 19.6568 5.51487 19.6568 4.92909 19.0711C4.3433 18.4853 4.3433 17.5355 4.92909 16.9497L16.9499 4.92892C17.5357 4.34313 18.4854 4.34313 19.0712 4.92892C19.657 5.5147 19.657 6.46445 19.0712 7.05024L7.05041 19.0711Z" fill="white"/>
</svg>
