<svg viewBox="0 0 688 118" fill="none" xmlns="http://www.w3.org/2000/svg">
<g clip-path="url(#clip0_611_4)">
<path fill-rule="evenodd" clip-rule="evenodd" d="M7.95 38.655C-2.65 49.255 -2.65 66.439 7.95 77.038L38.655 107.744C49.255 118.343 66.439 118.343 77.038 107.744L107.744 77.038C118.343 66.438 118.343 49.254 107.744 38.655L77.038 7.95C66.438 -2.649 49.254 -2.649 38.655 7.95L7.95 38.655ZM71.28 71.281C78.7 63.861 78.7 51.832 71.28 44.413C63.861 36.993 51.832 36.993 44.413 44.413C36.993 51.833 36.993 63.861 44.413 71.281C51.833 78.7 63.861 78.7 71.281 71.281H71.28Z" fill="#2962FF"/>
<path d="M161.437 64.087C161.48 55.538 166.705 50.529 174.218 50.529C181.688 50.529 186.092 55.322 186.049 63.483V102.43H204.443V60.201C204.486 44.657 195.332 35.244 181.515 35.244C171.455 35.244 164.719 39.994 161.696 47.809H160.919V14.001H143.043V102.43H161.437V64.087V64.087ZM232.967 103.682C242.768 103.682 249.115 99.407 252.354 93.233H252.872V102.43H270.316V57.697C270.316 41.894 256.931 35.244 242.164 35.244C226.274 35.244 215.825 42.844 213.277 54.934L230.29 56.315C231.542 51.911 235.471 48.673 242.077 48.673C248.338 48.673 251.922 51.825 251.922 57.265V57.525C251.922 61.799 247.388 62.36 235.86 63.483C222.733 64.692 210.946 69.096 210.946 83.906C210.946 97.032 220.315 103.682 232.967 103.682V103.682ZM238.234 90.987C232.578 90.987 228.519 88.354 228.519 83.302C228.519 78.12 232.794 75.572 239.271 74.666C243.286 74.105 249.849 73.155 252.051 71.686V78.725C252.051 85.676 246.309 90.987 238.234 90.987ZM334.904 55.02C333.264 42.8 323.419 35.244 306.666 35.244C289.697 35.244 278.514 43.103 278.557 55.884C278.514 65.814 284.775 72.248 297.728 74.839L309.213 77.127C314.999 78.293 317.633 80.409 317.719 83.733C317.633 87.663 313.358 90.469 306.925 90.469C300.362 90.469 296.001 87.663 294.878 82.265L276.787 83.215C278.514 95.91 289.308 103.725 306.882 103.725C324.067 103.725 336.372 94.96 336.416 81.877C336.372 72.291 330.112 66.548 317.245 63.915L305.241 61.497C299.066 60.158 296.778 58.042 296.821 54.847C296.778 50.875 301.269 48.284 306.968 48.284C313.358 48.284 317.158 51.782 318.065 56.056L334.904 55.02V55.02ZM361.529 64.087C361.572 55.538 366.796 50.529 374.309 50.529C381.779 50.529 386.183 55.322 386.14 63.483V102.43H404.534V60.201C404.577 44.657 395.423 35.244 381.606 35.244C371.546 35.244 364.81 39.994 361.788 47.809H361.01V14.001H343.135V102.43H361.529V64.087ZM432.54 64.087C432.583 55.538 437.678 50.529 445.105 50.529C452.488 50.529 456.936 55.365 456.892 63.483V102.43H475.286V60.201C475.286 44.744 466.219 35.244 452.402 35.244C442.557 35.244 435.433 40.08 432.454 47.809H431.676V36.108H414.146V102.43H432.54V64.087V64.087ZM514.885 103.725C535.007 103.725 547.528 89.951 547.528 69.528C547.528 48.975 535.007 35.244 514.885 35.244C494.764 35.244 482.243 48.975 482.243 69.528C482.243 89.951 494.764 103.725 514.885 103.725ZM514.972 89.476C505.689 89.476 500.939 80.97 500.939 69.398C500.939 57.826 505.689 49.278 514.972 49.278C524.082 49.278 528.832 57.827 528.832 69.398C528.832 80.97 524.082 89.476 514.972 89.476ZM579.064 103.509C589.772 103.509 595.342 97.335 597.89 91.808H598.667V102.43H616.802V14H598.451V47.248H597.89C595.428 41.851 590.117 35.244 579.021 35.244C564.47 35.244 552.164 46.557 552.164 69.355C552.164 91.549 563.952 103.509 579.064 103.509V103.509ZM584.893 88.872C575.869 88.872 570.946 80.84 570.946 69.269C570.946 57.783 575.782 49.882 584.893 49.882C593.831 49.882 598.84 57.438 598.84 69.269C598.84 81.099 593.744 88.872 584.893 88.872V88.872ZM657.286 103.725C673.694 103.725 684.747 95.737 687.338 83.431L670.326 82.309C668.469 87.36 663.72 89.994 657.588 89.994C648.391 89.994 642.562 83.906 642.562 74.018V73.975H687.727V68.923C687.727 46.384 674.082 35.244 656.552 35.244C637.035 35.244 624.384 49.104 624.384 69.571C624.384 90.599 636.863 103.725 657.286 103.725V103.725ZM642.562 62.576C642.951 55.02 648.694 48.975 656.854 48.975C664.842 48.975 670.369 54.675 670.412 62.576H642.562Z" fill="white"/>
</g>
<defs>
<clipPath id="clip0_611_4">
<rect width="688" height="118" fill="white"/>
</clipPath>
</defs>
</svg>
